<svg width="37" height="37" viewBox="0 0 37 37" fill="none" xmlns="http://www.w3.org/2000/svg">
<path fill-rule="evenodd" clip-rule="evenodd" d="M8.00024 9.5V8H14.0017V9.5H32.0002V27.5H5.00024V9.5H8.00024ZM30.5002 11V26H6.50024V11H30.5002ZM23.0002 18.5C23.0002 16.019 20.9812 14 18.5002 14C16.0192 14 14.0002 16.019 14.0002 18.5C14.0002 20.981 16.0192 23 18.5002 23C20.9812 23 23.0002 20.981 23.0002 18.5ZM24.5002 18.5C24.5002 21.809 21.8092 24.5 18.5002 24.5C15.1927 24.5 12.5002 21.809 12.5002 18.5C12.5002 15.191 15.1927 12.5 18.5002 12.5C21.8092 12.5 24.5002 15.191 24.5002 18.5Z" fill="black"/>
</svg>
